<svg width="24" height="24" version="1.0" xmlns="http://www.w3.org/2000/svg" xmlns:xlink="http://www.w3.org/1999/xlink">
	<defs>
		<style id="current-color-scheme" type="text/css">
			.ColorScheme-Text {
				color: #ffffff;
			}

			.ColorScheme-Highlight {
				color: #1768bf;
			}

			.ColorScheme-HighlightedText {
				color: #ffffff;
			}
		</style>
	</defs>
	<g id="active-center">
		<rect width="24" height="24" style="opacity:0" />
		<g class="ColorScheme-Text">
			<path id="a" d="m7.41615 9.0001c-.277 0-.5.223-.5.5s.223.5.5.5h9c.277 0 .5-.223.5-.5s-.223-.5-.5-.5zm0 3c-.277 0-.5.223-.5.5s.223.5.5.5h9c.277 0 .5-.223.5-.5s-.223-.5-.5-.5zm0 3c-.277 0-.5.223-.5.5s.223.5.5.5h9c.277 0 .5-.223.5-.5s-.223-.5-.5-.5z" style="fill:currentColor" />
		</g>
	</g>
	<use id="inactive-center" transform="translate(27)" xlink:href="#active-center" />
	<g id="hover-center" transform="translate(54)">
		<rect class="ColorScheme-Highlight" width="24" height="24" style="fill:currentColor" />
		<use class="ColorScheme-HighlightedText" xlink:href="#a" />
	</g>
	<use id="pressed-center" transform="translate(27)" xlink:href="#hover-center" />
	<use id="deactivated-center" transform="translate(108)" opacity=".3" xlink:href="#active-center" />
	<use id="deactivated-inactive-center" transform="translate(135)" opacity=".3" xlink:href="#active-center" />
</svg>
